<?xml version="1.0" encoding="UTF-8" standalone="no"?>
<svg width="32" height="32" viewBox="0 0 32 32" fill="none" xmlns="http://www.w3.org/2000/svg">
  <!-- Rounded square background with deep teal -->
  <rect width="32" height="32" rx="4" fill="#2C6E49"/>
  
  <!-- Shadow layer for 3D effect -->
  <path d="M21 13.5C21 10.85 18.9 9 16 9H14C11.1 9 9 10.85 9 13.5C9 16.15 11.1 18 14 18H16.9C19.8 18 21.9 19.85 21.9 22.5C21.9 25.15 19.8 27 16.9 27H14.4C11.5 27 9.4 25.15 9.4 22.5" 
        stroke="#134029" 
        stroke-width="3.5" 
        stroke-linecap="round"
        stroke-linejoin="round"
        opacity="0.3"
        transform="translate(1, 1)"/>
        
  <!-- Main 's' shape -->
  <path d="M21 11.5C21 8.85 18.9 7 16 7H14C11.1 7 9 8.85 9 11.5C9 14.15 11.1 16 14 16H16.9C19.8 16 21.9 17.85 21.9 20.5C21.9 23.15 19.8 25 16.9 25H14.4C11.5 25 9.4 23.15 9.4 20.5" 
        stroke="white" 
        stroke-width="3.2" 
        stroke-linecap="round"
        stroke-linejoin="round"/>
        
  <!-- Highlight for 3D effect -->
  <path d="M20 12C20 9.5 18 8 15.5 8H14C11.9 8 10.2 9.2 10 11" 
        stroke="#A3EADD" 
        stroke-width="1.2" 
        stroke-linecap="round"
        stroke-linejoin="round"
        opacity="0.8"/>
</svg>